<svg width="92" height="81" viewBox="0 0 92 81" fill="none" xmlns="http://www.w3.org/2000/svg">
<path d="M20.3171 18.9931C20.3171 24.0991 19.1535 28.6723 17.3232 31.9339C15.475 35.2273 13.0789 36.9862 10.6585 36.9862C8.23819 36.9862 5.84206 35.2273 3.99388 31.9339C2.16355 28.6723 1 24.0991 1 18.9931C1 13.8871 2.16355 9.31391 3.99388 6.05234C5.84206 2.75895 8.23819 1 10.6585 1C13.0789 1 15.475 2.75895 17.3232 6.05234C19.1535 9.31391 20.3171 13.8871 20.3171 18.9931Z" fill="white" stroke="#5152B7" stroke-width="2"/>
<path d="M20.3171 18.9931C20.3171 24.0991 19.1535 28.6723 17.3232 31.9339C15.475 35.2273 13.0789 36.9862 10.6585 36.9862C8.23819 36.9862 5.84206 35.2273 3.99388 31.9339C2.16355 28.6723 1 24.0991 1 18.9931C1 13.8871 2.16355 9.31391 3.99388 6.05234C5.84206 2.75895 8.23819 1 10.6585 1C13.0789 1 15.475 2.75895 17.3232 6.05234C19.1535 9.31391 20.3171 13.8871 20.3171 18.9931Z" transform="translate(70.6829)" fill="white" stroke="#5152B7" stroke-width="2"/>
<path d="M82.4634 21.7862C82.4634 6.36032 62.9483 0 40.9512 0C18.9541 0 0 6.36032 0 21.7862" transform="translate(5.60986 59.2138)" stroke="#5152B7" stroke-width="2"/>
</svg>
