<svg width="14" height="18" viewBox="0 0 14 18" fill="none" xmlns="http://www.w3.org/2000/svg">
<path d="M12 6.14483C12 10.9241 6 15.0207 6 15.0207C6 15.0207 0 10.9241 0 6.14483C2.37122e-08 4.51512 0.632141 2.95216 1.75736 1.79978C2.88258 0.6474 4.4087 -1.01739e-08 6 -1.01739e-08C7.5913 -1.01739e-08 9.11742 0.6474 10.2426 1.79978C11.3679 2.95216 12 4.51512 12 6.14483Z" transform="translate(1 1)" stroke="#B1B1E6" stroke-width="2" stroke-linecap="round" stroke-linejoin="round"/>
<path d="M2 4.09655C3.10457 4.09655 4 3.17951 4 2.04828C4 0.917045 3.10457 0 2 0C0.895431 0 0 0.917045 0 2.04828C0 3.17951 0.895431 4.09655 2 4.09655Z" transform="translate(5 5.09656)" stroke="#B1B1E6" stroke-width="2" stroke-linecap="round" stroke-linejoin="round"/>
</svg>
