<svg width="183" height="28" viewBox="0 0 183 28" fill="none" xmlns="http://www.w3.org/2000/svg">
<path d="M21.5508 30.2578C20.9063 31.1484 19.7754 31.8867 18.1582 32.4727C16.541 33.0586 14.7598 33.3516 12.8145 33.3516C10.916 33.3516 9.22266 32.8887 7.73438 31.9629C6.24609 31.0371 5.08008 29.7305 4.23633 28.043C3.4043 26.3555 2.97656 24.4453 2.95312 22.3125V17.918C2.95312 15.8203 3.35742 13.9395 4.16602 12.2754C4.97461 10.6113 6.11133 9.32813 7.57617 8.42578C9.04102 7.51172 10.6875 7.05469 12.5156 7.05469C15.0586 7.05469 17.127 7.70508 18.7207 9.00586C20.3262 10.3066 21.2578 12.082 21.5156 14.332H20.5664C20.25 12.293 19.4004 10.7285 18.0176 9.63867C16.6348 8.54883 14.8008 8.00391 12.5156 8.00391C9.9375 8.00391 7.85742 8.92383 6.27539 10.7637C4.69336 12.6035 3.90234 15.0234 3.90234 18.0234V22.1016C3.90234 24.1055 4.27148 25.8926 5.00977 27.4629C5.75977 29.0332 6.80859 30.252 8.15625 31.1191C9.51562 31.9746 11.0684 32.4023 12.8145 32.4023C14.5254 32.4023 16.1133 32.1504 17.5781 31.6465C19.043 31.1426 20.0508 30.5332 20.6016 29.8184V22.3652H12.7793V21.3984H21.5508V30.2578ZM28.916 33H27.9668V13.9805H28.916V33ZM27.4746 8.03906C27.4746 7.76953 27.5684 7.54101 27.7559 7.35352C27.9434 7.1543 28.1719 7.05469 28.4414 7.05469C28.7109 7.05469 28.9395 7.1543 29.127 7.35352C29.3262 7.54101 29.4258 7.76953 29.4258 8.03906C29.4258 8.30859 29.3262 8.53711 29.127 8.72461C28.9395 8.91211 28.7109 9.00586 28.4414 9.00586C28.1719 9.00586 27.9434 8.91211 27.7559 8.72461C27.5684 8.53711 27.4746 8.30859 27.4746 8.03906ZM37.2832 8.84766V13.9805H41.6074V14.9473H37.2832V28.4473C37.2832 29.7949 37.5 30.791 37.9336 31.4355C38.3789 32.0801 39.1172 32.4023 40.1484 32.4023C40.6641 32.4023 41.291 32.3496 42.0293 32.2441L42.1875 33.1406C41.8008 33.2812 41.1387 33.3516 40.2012 33.3516C38.8184 33.3516 37.8281 32.9707 37.2305 32.209C36.6328 31.4355 36.3281 30.2227 36.3164 28.5703V14.9473H32.8008V13.9805H36.3164V8.84766H37.2832ZM47.4961 18.4102C48.1172 16.9336 49.0313 15.7676 50.2383 14.9121C51.4453 14.0566 52.7813 13.6289 54.2461 13.6289C56.2852 13.6289 57.7969 14.209 58.7812 15.3691C59.7773 16.5176 60.2812 18.2578 60.293 20.5898V33H59.3438V20.5547C59.332 18.5156 58.916 17.0098 58.0957 16.0371C57.2754 15.0527 55.9746 14.5605 54.1934 14.5605C52.5527 14.5605 51.1289 15.1465 49.9219 16.3184C48.7266 17.4785 47.918 18.9785 47.4961 20.8184V33H46.5469V6H47.4961V18.4102ZM79.0137 33V29.9238C78.4512 30.9785 77.6309 31.8164 76.5527 32.4375C75.4746 33.0469 74.1094 33.3516 72.457 33.3516C70.3828 33.3516 68.8242 32.748 67.7812 31.541C66.75 30.3223 66.2227 28.5527 66.1992 26.2324V13.9805H67.1484V26.2676C67.1719 28.2832 67.6289 29.8125 68.5195 30.8555C69.4102 31.8867 70.7109 32.4023 72.4219 32.4023C74.2383 32.4023 75.7148 31.9746 76.8516 31.1191C77.9883 30.2637 78.709 29.0098 79.0137 27.3574V13.9805H79.9805V33H79.0137ZM100.529 23.666C100.529 26.6309 99.8906 28.9863 98.6133 30.7324C97.3359 32.4785 95.5957 33.3516 93.3926 33.3516C91.9629 33.3516 90.6855 33.0586 89.5605 32.4727C88.4355 31.875 87.5508 31.0488 86.9062 29.9941V33H85.957V6H86.9062V17.4434C87.5742 16.1895 88.4531 15.2402 89.543 14.5957C90.6445 13.9512 91.916 13.6289 93.3574 13.6289C95.584 13.6289 97.3359 14.4844 98.6133 16.1953C99.8906 17.8945 100.529 20.2852 100.529 23.3672V23.666ZM99.5449 23.2969C99.5449 20.5664 99 18.4336 97.9102 16.8984C96.832 15.3516 95.3203 14.5781 93.375 14.5781C91.7813 14.5781 90.4277 14.9883 89.3145 15.8086C88.2129 16.6289 87.4102 17.8477 86.9062 19.4648V28.1836C87.4102 29.5313 88.2129 30.5742 89.3145 31.3125C90.4277 32.0391 91.793 32.4023 93.4102 32.4023C95.3672 32.4023 96.8789 31.623 97.9453 30.0645C99.0117 28.5059 99.5449 26.25 99.5449 23.2969Z" transform="translate(-2 -6)" fill="#4F4F4F"/>
<path d="M113.203 21.5918C110.309 20.7598 108.199 19.7402 106.875 18.5332C105.562 17.3145 104.906 15.8145 104.906 14.0332C104.906 12.0176 105.709 10.3535 107.314 9.04102C108.932 7.7168 111.029 7.05469 113.607 7.05469C115.365 7.05469 116.93 7.39453 118.301 8.07422C119.684 8.75391 120.75 9.69141 121.5 10.8867C122.262 12.082 122.643 13.3887 122.643 14.8066H119.25C119.25 13.2598 118.758 12.0469 117.773 11.168C116.789 10.2773 115.4 9.83203 113.607 9.83203C111.943 9.83203 110.643 10.2012 109.705 10.9395C108.779 11.666 108.316 12.6797 108.316 13.9805C108.316 15.0234 108.756 15.9082 109.635 16.6348C110.525 17.3496 112.031 18.0059 114.152 18.6035C116.285 19.2012 117.949 19.8633 119.145 20.5898C120.352 21.3047 121.242 22.1426 121.816 23.1035C122.402 24.0645 122.695 25.1953 122.695 26.4961C122.695 28.5703 121.887 30.2344 120.27 31.4883C118.652 32.7305 116.49 33.3516 113.783 33.3516C112.025 33.3516 110.385 33.0176 108.861 32.3496C107.338 31.6699 106.16 30.7441 105.328 29.5723C104.508 28.4004 104.098 27.0703 104.098 25.582H107.49C107.49 27.1289 108.059 28.3535 109.195 29.2559C110.344 30.1465 111.873 30.5918 113.783 30.5918C115.564 30.5918 116.93 30.2285 117.879 29.502C118.828 28.7754 119.303 27.7852 119.303 26.5312C119.303 25.2773 118.863 24.3105 117.984 23.6309C117.105 22.9395 115.512 22.2598 113.203 21.5918ZM130.939 9.375V13.9805H134.49V16.4941H130.939V28.2891C130.939 29.0508 131.098 29.625 131.414 30.0117C131.73 30.3867 132.27 30.5742 133.031 30.5742C133.406 30.5742 133.922 30.5039 134.578 30.3633V33C133.723 33.2344 132.891 33.3516 132.082 33.3516C130.629 33.3516 129.533 32.9121 128.795 32.0332C128.057 31.1543 127.688 29.9062 127.688 28.2891V16.4941H124.225V13.9805H127.688V9.375H130.939ZM150.047 33C149.859 32.625 149.707 31.957 149.59 30.9961C148.078 32.5664 146.273 33.3516 144.176 33.3516C142.301 33.3516 140.76 32.8242 139.553 31.7695C138.357 30.7031 137.76 29.3555 137.76 27.7266C137.76 25.7461 138.51 24.2109 140.01 23.1211C141.521 22.0195 143.643 21.4688 146.373 21.4688H149.537V19.9746C149.537 18.8379 149.197 17.9355 148.518 17.2676C147.838 16.5879 146.836 16.248 145.512 16.248C144.352 16.248 143.379 16.541 142.594 17.127C141.809 17.7129 141.416 18.4219 141.416 19.2539H138.146C138.146 18.3047 138.48 17.3906 139.148 16.5117C139.828 15.6211 140.742 14.918 141.891 14.4023C143.051 13.8867 144.322 13.6289 145.705 13.6289C147.896 13.6289 149.613 14.1797 150.855 15.2812C152.098 16.3711 152.742 17.877 152.789 19.7988V28.5527C152.789 30.2988 153.012 31.6875 153.457 32.7188V33H150.047ZM144.65 30.5215C145.67 30.5215 146.637 30.2578 147.551 29.7305C148.465 29.2031 149.127 28.5176 149.537 27.6738V23.7715H146.988C143.004 23.7715 141.012 24.9375 141.012 27.2695C141.012 28.2891 141.352 29.0859 142.031 29.6602C142.711 30.2344 143.584 30.5215 144.65 30.5215ZM167.08 16.8984C166.588 16.8164 166.055 16.7754 165.48 16.7754C163.348 16.7754 161.9 17.6836 161.139 19.5V33H157.887V13.9805H161.051L161.104 16.1777C162.17 14.4785 163.682 13.6289 165.639 13.6289C166.271 13.6289 166.752 13.7109 167.08 13.875V16.8984ZM181.16 27.9551C181.16 27.0762 180.826 26.3965 180.158 25.916C179.502 25.4238 178.348 25.002 176.695 24.6504C175.055 24.2988 173.748 23.877 172.775 23.3848C171.814 22.8926 171.1 22.3066 170.631 21.627C170.174 20.9473 169.945 20.1387 169.945 19.2012C169.945 17.6426 170.602 16.3242 171.914 15.2461C173.238 14.168 174.926 13.6289 176.977 13.6289C179.133 13.6289 180.879 14.1855 182.215 15.2988C183.563 16.4121 184.236 17.8359 184.236 19.5703H180.967C180.967 18.6797 180.586 17.9121 179.824 17.2676C179.074 16.623 178.125 16.3008 176.977 16.3008C175.793 16.3008 174.867 16.5586 174.199 17.0742C173.531 17.5898 173.197 18.2637 173.197 19.0957C173.197 19.8809 173.508 20.4727 174.129 20.8711C174.75 21.2695 175.869 21.6504 177.486 22.0137C179.115 22.377 180.434 22.8105 181.441 23.3145C182.449 23.8184 183.193 24.4277 183.674 25.1426C184.166 25.8457 184.412 26.707 184.412 27.7266C184.412 29.4258 183.732 30.791 182.373 31.8223C181.014 32.8418 179.25 33.3516 177.082 33.3516C175.559 33.3516 174.211 33.082 173.039 32.543C171.867 32.0039 170.947 31.2539 170.279 30.293C169.623 29.3203 169.295 28.2715 169.295 27.1465H172.547C172.605 28.2363 173.039 29.1035 173.848 29.748C174.668 30.3809 175.746 30.6973 177.082 30.6973C178.312 30.6973 179.297 30.4512 180.035 29.959C180.785 29.4551 181.16 28.7871 181.16 27.9551Z" transform="translate(-2 -6)" fill="#5253B9"/>
</svg>
