<svg width="17" height="15" viewBox="0 0 17 15" fill="none" xmlns="http://www.w3.org/2000/svg">
<path d="M10.6667 4.09655V2.73103C10.6667 2.00672 10.3857 1.31207 9.88562 0.799902C9.38552 0.287734 8.70724 0 8 0H2.66667C1.95942 0 1.28115 0.287734 0.781049 0.799902C0.280952 1.31207 0 2.00672 0 2.73103V4.09655" transform="translate(1 9.1931)" stroke="#B1B1E6" stroke-width="2" stroke-linecap="round" stroke-linejoin="round"/>
<path d="M2.66667 5.46207C4.13943 5.46207 5.33333 4.23934 5.33333 2.73103C5.33333 1.22273 4.13943 0 2.66667 0C1.19391 0 0 1.22273 0 2.73103C0 4.23934 1.19391 5.46207 2.66667 5.46207Z" transform="translate(3.66669 1)" stroke="#B1B1E6" stroke-width="2" stroke-linecap="round" stroke-linejoin="round"/>
<path d="M2 4.00779V2.64228C1.99956 2.03717 1.8029 1.44934 1.44091 0.971098C1.07892 0.492854 0.572086 0.151277 0 7.81355e-08" transform="translate(13.6667 9.28186)" stroke="#B1B1E6" stroke-width="2" stroke-linecap="round" stroke-linejoin="round"/>
<path d="M0 7.81355e-08C0.57361 0.150413 1.08202 0.492065 1.44509 0.971095C1.80816 1.45012 2.00523 2.03928 2.00523 2.64569C2.00523 3.2521 1.80816 3.84126 1.44509 4.32029C1.08202 4.79932 0.57361 5.14097 0 5.29138" transform="translate(11 1.08876)" stroke="#B1B1E6" stroke-width="2" stroke-linecap="round" stroke-linejoin="round"/>
</svg>
